Coordinates
version=1
nRows=27
nColumns=38
inDegrees=no

Units are S.I. units (second, meters, Newtons, ...)
If the header above contains a line with 'inDegrees', this indicates whether rotational values are in degrees (yes) or radians (no).

endheader
time	pelvis_tilt	pelvis_list	pelvis_rotation	pelvis_tx	pelvis_ty	pelvis_tz	hip_flexion_r	hip_adduction_r	hip_rotation_r	knee_angle_r	ankle_angle_r	subtalar_angle_r	mtp_angle_r	hip_flexion_l	hip_adduction_l	hip_rotation_l	knee_angle_l	ankle_angle_l	subtalar_angle_l	mtp_angle_l	lumbar_extension	lumbar_bending	lumbar_rotation	arm_flex_r	arm_add_r	arm_rot_r	elbow_flex_r	pro_sup_r	wrist_flex_r	wrist_dev_r	arm_flex_l	arm_add_l	arm_rot_l	elbow_flex_l	pro_sup_l	wrist_flex_l	wrist_dev_l
35	0.707149	1.48135	0.973834	0.676552	0.643831	0.916953	0.278105	-0.0820935	-0.144812	0.619018	-0.160231	0	0	0.200586	-0.214595	-0.347121	0.442362	-0.323612	0	0	-0.208063	0.148563	-0.143946	0.270364	-0.431754	0.628658	0.542494	0.97295	0	0	0.0630886	-0.26452	0.172932	0.764822	1.54101	0	0
35.01	0.67175	1.47535	1.00982	0.677323	0.641358	0.915015	0.297713	-0.082269	-0.141458	0.636759	-0.156038	0	0	0.222032	-0.219455	-0.343575	0.464358	-0.315955	0	0	-0.211154	0.15097	-0.141856	0.274451	-0.433335	0.624555	0.542173	0.974752	0	0	0.0640776	-0.266649	0.16807	0.774719	1.54058	0	0
35.02	0.642691	1.47122	1.03894	0.678071	0.638808	0.9132	0.315478	-0.0831785	-0.137594	0.653801	-0.152831	0	0	0.240239	-0.22275	-0.340291	0.48355	-0.31024	0	0	-0.216645	0.152621	-0.139293	0.279197	-0.434814	0.620455	0.541707	0.975831	0	0	0.0656697	-0.268889	0.163697	0.784404	1.53996	0	0
35.03	0.609249	1.4673	1.07156	0.678896	0.636199	0.911339	0.333763	-0.0842661	-0.131774	0.671104	-0.149119	0	0	0.25797	-0.225326	-0.338025	0.502031	-0.304576	0	0	-0.22256	0.153462	-0.136246	0.283938	-0.435908	0.614566	0.54151	0.975748	0	0	0.0670041	-0.271102	0.158696	0.794317	1.53923	0	0
35.04	0.573859	1.46354	1.10555	0.679741	0.633535	0.909435	0.352249	-0.0854914	-0.124344	0.688407	-0.145397	0	0	0.275276	-0.227344	-0.336486	0.519895	-0.299256	0	0	-0.228844	0.153802	-0.132856	0.289062	-0.437099	0.608453	0.54137	0.976387	0	0	0.0684824	-0.273159	0.153513	0.803845	1.53853	0	0
35.05	0.539389	1.46002	1.13907	0.680552	0.630915	0.907463	0.371301	-0.0877511	-0.118223	0.707726	-0.141865	0	0	0.292263	-0.229071	-0.335104	0.537666	-0.294223	0	0	-0.235262	0.153991	-0.130062	0.293859	-0.437966	0.601108	0.541268	0.976997	0	0	0.0699192	-0.27527	0.148569	0.81279	1.53806	0	0
35.06	0.50615	1.45685	1.17123	0.681367	0.628284	0.905419	0.390525	-0.0906593	-0.11317	0.728716	-0.137984	0	0	0.30884	-0.230745	-0.334218	0.555595	-0.289405	0	0	-0.242206	0.153971	-0.127364	0.298874	-0.438817	0.593292	0.541232	0.978725	0	0	0.0713004	-0.277459	0.143689	0.821575	1.53747	0	0
35.07	0.47501	1.45357	1.20141	0.682107	0.625641	0.903283	0.409658	-0.0938682	-0.109187	0.749899	-0.133874	0	0	0.325687	-0.23255	-0.333025	0.574002	-0.28475	0	0	-0.2494	0.154243	-0.124839	0.303795	-0.439641	0.584694	0.541442	0.979999	0	0	0.0726628	-0.279465	0.138822	0.830198	1.53687	0	0
35.08	0.44342	1.44964	1.23169	0.682854	0.622942	0.900997	0.42874	-0.0966576	-0.104042	0.768687	-0.130136	0	0	0.343457	-0.234371	-0.331702	0.592889	-0.280114	0	0	-0.256235	0.154637	-0.122089	0.308503	-0.440346	0.575224	0.542015	0.980044	0	0	0.0740693	-0.281304	0.133977	0.838423	1.53671	0	0
35.09	0.415804	1.44586	1.25815	0.683612	0.620262	0.898614	0.44797	-0.0994001	-0.0994818	0.78838	-0.126607	0	0	0.36119	-0.236442	-0.3302	0.612216	-0.2752	0	0	-0.263405	0.15532	-0.119511	0.313504	-0.441088	0.565933	0.542525	0.980726	0	0	0.0755886	-0.283213	0.129509	0.846158	1.5376	0	0
35.1	0.392713	1.44244	1.28069	0.684305	0.617645	0.896138	0.467364	-0.102567	-0.0962877	0.809262	-0.12379	0	0	0.378817	-0.238794	-0.328224	0.6322	-0.27034	0	0	-0.271003	0.15653	-0.117436	0.318725	-0.44183	0.557093	0.542727	0.982766	0	0	0.0772245	-0.285053	0.125269	0.853345	1.53963	0	0
35.11	0.373305	1.43893	1.29959	0.684969	0.61503	0.89356	0.48626	-0.105168	-0.0933708	0.829053	-0.12134	0	0	0.396745	-0.241598	-0.325981	0.652899	-0.265379	0	0	-0.278789	0.158327	-0.115252	0.323828	-0.442305	0.547385	0.542767	0.983809	0	0	0.0790504	-0.286671	0.121191	0.859954	1.54192	0	0
35.12	0.356047	1.43574	1.31617	0.685686	0.612411	0.890911	0.504199	-0.107299	-0.0901667	0.84706	-0.119331	0	0	0.414402	-0.244665	-0.323877	0.674004	-0.260265	0	0	-0.28715	0.160236	-0.112495	0.329182	-0.443041	0.538376	0.542752	0.9854	0	0	0.0814299	-0.288175	0.117611	0.865906	1.54372	0	0
35.13	0.341363	1.43246	1.3301	0.686387	0.609801	0.88818	0.521194	-0.108912	-0.0876081	0.863725	-0.11676	0	0	0.432192	-0.247848	-0.32153	0.695257	-0.254981	0	0	-0.295751	0.162406	-0.109277	0.334952	-0.44406	0.530983	0.542201	0.988595	0	0	0.0842238	-0.289384	0.114274	0.871282	1.54539	0	0
35.14	0.328438	1.42888	1.34231	0.687034	0.607232	0.885348	0.537833	-0.110439	-0.0860766	0.879959	-0.113302	0	0	0.45027	-0.250979	-0.318703	0.7164	-0.249526	0	0	-0.304298	0.164901	-0.105836	0.340463	-0.445114	0.52342	0.541751	0.991577	0	0	0.0870045	-0.290151	0.110767	0.876226	1.54727	0	0
35.15	0.317404	1.4255	1.35287	0.687629	0.604725	0.882413	0.55473	-0.112585	-0.0854196	0.897436	-0.110104	0	0	0.468137	-0.254135	-0.31553	0.737674	-0.243834	0	0	-0.312975	0.167546	-0.102408	0.346025	-0.446566	0.516651	0.541329	0.996086	0	0	0.0897337	-0.290634	0.107192	0.880849	1.54884	0	0
35.16	0.308699	1.42249	1.36108	0.68816	0.602266	0.879424	0.571226	-0.11498	-0.085543	0.915777	-0.106723	0	0	0.485436	-0.257347	-0.312176	0.758867	-0.238168	0	0	-0.322017	0.170305	-0.0988187	0.352122	-0.448324	0.511667	0.540271	1.00283	0	0	0.0923163	-0.290794	0.10346	0.885396	1.55032	0	0
35.17	0.300156	1.41876	1.36863	0.688621	0.599798	0.876316	0.588032	-0.116908	-0.0848509	0.933036	-0.10325	0	0	0.503402	-0.260487	-0.308468	0.779854	-0.232413	0	0	-0.33058	0.173132	-0.0948417	0.35827	-0.450021	0.506689	0.539006	1.00946	0	0	0.0944577	-0.290332	0.0987791	0.890005	1.55235	0	0
35.18	0.290094	1.41472	1.37758	0.688987	0.59736	0.873088	0.60568	-0.119315	-0.0832464	0.950176	-0.100509	0	0	0.521747	-0.263039	-0.304386	0.800683	-0.226506	0	0	-0.338743	0.175775	-0.0910369	0.364375	-0.451998	0.50139	0.53821	1.01652	0	0	0.0960248	-0.289286	0.0929319	0.894719	1.55481	0	0
35.19	0.280522	1.41097	1.38585	0.689239	0.594964	0.869817	0.623441	-0.121708	-0.0808395	0.967823	-0.0982587	0	0	0.539664	-0.265072	-0.299988	0.821205	-0.220341	0	0	-0.347311	0.178435	-0.0870946	0.370539	-0.454385	0.496185	0.537841	1.02436	0	0	0.097252	-0.287536	0.0861626	0.899534	1.55752	0	0
35.2	0.271172	1.40775	1.39396	0.689428	0.592653	0.866517	0.64094	-0.124023	-0.0777017	0.986262	-0.095899	0	0	0.556843	-0.266752	-0.295735	0.841513	-0.213944	0	0	-0.356426	0.181043	-0.0831842	0.376212	-0.45646	0.48942	0.537754	1.03071	0	0	0.0982489	-0.285419	0.0790578	0.904317	1.56007	0	0
35.21	0.261898	1.40516	1.40188	0.689622	0.590448	0.863208	0.657967	-0.125954	-0.0735259	1.00541	-0.0932766	0	0	0.572968	-0.268352	-0.292014	0.86152	-0.207327	0	0	-0.366162	0.183362	-0.0790473	0.381548	-0.458422	0.481323	0.538047	1.03546	0	0	0.0991791	-0.283162	0.0719518	0.908836	1.56296	0	0
35.22	0.249944	1.40095	1.41194	0.689905	0.588247	0.859692	0.676787	-0.126673	-0.0666667	1.02418	-0.0890175	0	0	0.590859	-0.269626	-0.287829	0.881673	-0.197932	0	0	-0.374459	0.185386	-0.0721383	0.378722	-0.456653	0.440815	0.542137	1.07064	0	0	0.102179	-0.280927	0.0694608	0.911355	1.5614	0	0
35.23	0.243226	1.39919	1.41683	0.690174	0.586085	0.856419	0.69182	-0.12654	-0.0593904	1.04036	-0.087311	0	0	0.60558	-0.271246	-0.283864	0.901003	-0.193346	0	0	-0.385439	0.187477	-0.067525	0.385487	-0.45932	0.43873	0.541931	1.06917	0	0	0.103069	-0.27806	0.0611734	0.915306	1.56638	0	0
35.24	0.239244	1.39774	1.4194	0.69046	0.584054	0.85314	0.706371	-0.126125	-0.0530508	1.05799	-0.084215	0	0	0.619946	-0.273185	-0.279438	0.920514	-0.18731	0	0	-0.39663	0.189909	-0.062771	0.39111	-0.461894	0.433798	0.542633	1.06713	0	0	0.104165	-0.275162	0.0537372	0.918675	1.56988	0	0
35.25	0.23901	1.39724	1.41885	0.690709	0.58216	0.849913	0.719299	-0.125945	-0.0486729	1.07627	-0.0801045	0	0	0.633126	-0.275374	-0.274444	0.939715	-0.180839	0	0	-0.408595	0.192941	-0.058021	0.395827	-0.464424	0.426957	0.543883	1.06537	0	0	0.105681	-0.272307	0.0475947	0.921032	1.5708	0	0
35.26	0.237174	1.39501	1.41978	0.690915	0.580256	0.846508	0.73343	-0.125713	-0.0438373	1.09251	-0.0761203	0	0	0.648205	-0.277174	-0.268777	0.958686	-0.174378	0	0	-0.418595	0.195932	-0.0531368	0.399794	-0.466929	0.418566	0.545468	1.06313	0	0	0.107182	-0.269424	0.0426315	0.922309	1.5708	0	0
